<?xml version="1.0" encoding="UTF-8"?>
<svg version="1.1" xmlns="http://www.w3.org/2000/svg" width="512" height="512">
<path d="M0 0 C4.84479061 0.00377138 9.68956077 0.0024086 14.53435063 -0.00180233 C74.2895626 -0.05235587 74.2895626 -0.05235587 103.2306397 1.12856877 C104.20271367 1.16637455 105.17478765 1.20418034 106.17631841 1.24313176 C111.48882935 1.45279508 116.79743042 1.7046882 122.1056397 2.00356877 C122.85350743 2.04491948 123.60137517 2.08627018 124.37190557 2.12887394 C190.22430989 5.82526506 190.22430989 5.82526506 209.2306397 25.12856877 C209.8906397 25.78985783 210.5506397 26.45114689 211.2306397 27.13247502 C242.51582911 60.50783873 233.3840295 139.48719092 232.07829595 182.49673283 C229.15382452 269.54649763 229.15382452 269.54649763 211.2306397 289.12856877 C210.53841313 289.90071721 209.84618657 290.67286564 209.13298345 291.46841252 C191.79599917 309.84500432 166.63560109 311.10035729 142.8556397 312.75356877 C141.11375071 312.87998762 139.37188893 313.00678177 137.63005376 313.13393986 C132.83122021 313.48040956 128.03136133 313.80941353 123.2306397 314.12856877 C122.18553227 314.19817814 121.14042485 314.26778752 120.06364751 314.33950627 C114.45510737 314.69681941 108.84633933 314.91957149 103.2306397 315.12856877 C102.21780919 315.16873112 101.20497869 315.20889348 100.16145635 315.25027287 C70.93698131 316.37481187 41.70242354 316.28255975 12.46127939 316.25713754 C7.61648878 316.25336616 2.77171862 316.25472894 -2.07307124 316.25893986 C-61.8282832 316.3094934 -61.8282832 316.3094934 -90.7693603 315.12856877 C-92.22747127 315.07186009 -92.22747127 315.07186009 -93.71503901 315.01400578 C-99.02754996 314.80434246 -104.33615103 314.55244933 -109.6443603 314.25356877 C-110.76616191 314.19154271 -110.76616191 314.19154271 -111.91062617 314.12826359 C-177.7630305 310.43187247 -177.7630305 310.43187247 -196.7693603 291.12856877 C-197.4293603 290.46727971 -198.0893603 289.80599064 -198.7693603 289.12466252 C-230.05454972 255.74929881 -220.92275011 176.76994661 -219.61701655 133.76040471 C-216.69254513 46.71063991 -216.69254513 46.71063991 -198.7693603 27.12856877 C-198.07713374 26.35642033 -197.38490718 25.58427189 -196.67170405 24.78872502 C-179.33471977 6.41213322 -154.1743217 5.15678025 -130.3943603 3.50356877 C-128.65247132 3.37714992 -126.91060954 3.25035577 -125.16877437 3.12319767 C-120.36994082 2.77672798 -115.57008194 2.447724 -110.7693603 2.12856877 C-109.20169917 2.02415471 -109.20169917 2.02415471 -107.60236812 1.91763127 C-101.99382797 1.56031813 -96.38505994 1.33756605 -90.7693603 1.12856877 C-89.7565298 1.08840641 -88.74369929 1.04824406 -87.70017695 1.00686467 C-58.47570192 -0.11767434 -29.24114415 -0.02542221 0 0 Z M-37.7693603 93.12856877 C-37.7693603 136.02856877 -37.7693603 178.92856877 -37.7693603 223.12856877 C-32.80989373 221.47541324 -28.90607916 219.61408346 -24.5193603 216.94106877 C-23.00579444 216.03485521 -21.49141712 215.1299961 -19.97639155 214.22622502 C-19.14833003 213.73138615 -18.32026851 213.23654728 -17.46711421 212.7267133 C-12.40799837 209.72970223 -7.30447824 206.80943507 -2.2068603 203.87856877 C6.28748305 198.9876062 14.76830294 194.07470106 23.2306397 189.12856877 C40.50832147 179.03280758 57.83863454 169.02620079 75.2306397 159.12856877 C75.2306397 158.46856877 75.2306397 157.80856877 75.2306397 157.12856877 C74.65958501 156.8080756 74.08853032 156.48758244 73.50017095 156.15737736 C61.41689688 149.3689402 49.38503322 142.50167969 37.42351079 135.50088322 C30.08235447 131.20504799 22.72488326 126.93853829 15.3556397 122.69106877 C14.28579839 122.0744135 13.21595708 121.45775822 12.11369634 120.82241642 C9.93402403 119.56638945 7.75425446 118.31053123 5.5743897 117.0548383 C0.96286544 114.39822861 -3.6478817 111.74027319 -8.25812984 109.08144963 C-10.43600912 107.82543979 -12.61405536 106.56971938 -14.79230952 105.31435978 C-15.79278316 104.73742375 -16.79325679 104.16048771 -17.8240478 103.56606877 C-18.79567866 103.00661564 -19.76730952 102.44716252 -20.76838374 101.87075627 C-22.89289696 100.63739096 -25.01005161 99.39130973 -27.12189937 98.13638127 C-28.2043896 97.49442814 -29.28687984 96.85247502 -30.4021728 96.19106877 C-31.3833105 95.60454533 -32.36444819 95.01802189 -33.37531734 94.41372502 C-35.61018902 92.97091069 -35.61018902 92.97091069 -37.7693603 93.12856877 Z " fill="#000000" transform="translate(249.76936030387878,97.87143123149872)"/>
</svg>
